<svg xmlns="http://www.w3.org/2000/svg" xmlns:xlink="http://www.w3.org/1999/xlink" viewBox="0 0 274.432 274.432"><radialGradient id="a" cx="130" cy="922.362" r="55" gradientTransform="matrix(2.8181818 -.27272619 .18389093 1.9002138 -405.97768 -794.86883)" gradientUnits="userSpaceOnUse"><stop offset="0" stop-color="#202020"/><stop offset="1" stop-color="#1a1a1a"/></radialGradient><radialGradient id="b" cx="49" cy="34.526" r="49" gradientTransform="matrix(3.4242701 1.2494923 -1.112799 3.0496583 -80.368403 -131.99224)" gradientUnits="userSpaceOnUse"><stop offset="0" stop-color="#f2f2f2"/><stop offset="1" stop-color="#f2f2f2" stop-opacity="0"/></radialGradient><linearGradient id="c" x1="-19.817" x2="150.183" y1="712.444" y2="932.444" gradientUnits="userSpaceOnUse"><stop offset="0" stop-color="#fff"/><stop offset="1" stop-color="#fff" stop-opacity="0"/></linearGradient><filter id="d"><feGaussianBlur stdDeviation="2.97"/></filter><filter id="e" width="1.054" height="1.408" x="-.027" y="-.204"><feGaussianBlur stdDeviation="1.7"/></filter><g transform="translate(8.787 -787.86042)"><rect width="150" height="20" x="63.787" y="249.502" filter="url(#e)" opacity=".2" rx="10" ry="8.005" transform="matrix(1 0 0 1.1345196 -8.787 751.05831)"/><rect width="140" height="256" x="59.976" y="796.388" filter="url(#d)" opacity=".7" rx="10" ry="10"/><rect width="140" height="256" x="60" y="796.362" fill="#f2f2f2" stroke="#6a6a6a" stroke-width=".5" rx="10" ry="10"/><rect width="120" height="220" x="70" y="812.362" fill="#111" rx="0" ry="0"/><rect width="110" height="210" x="75" y="817.362" fill="url(#a)" rx="0" ry="0"/><rect width="40" height="5" x="110" y="803.344" fill="#fff" opacity=".7" rx="3" ry="2.5"/><rect width="40" height="5" x="110" y="802.362" fill="#111" rx="3" ry="2.5"/><path fill="#fff" d="m98.999998 805.84433a1.5 1.5 0 1 1 -3 0 1.5 1.5 0 1 1 3 0z" opacity=".7"/><path fill="#111" d="m99 804.86219a1.5 1.5 0 1 1 -3 0 1.5 1.5 0 1 1 3 0z"/><path fill="url(#b)" d="m18.0991.0201c-.1947.0201-.4053.0738-.5517.2207l-6.7689 6.7688c-.2843.2851-.319.7216-.1103 1.0667l7.9092 13.0594c-1.4044 2.3608-2.5448 4.8933-3.3477 7.5781 0 0-14.530751 3.0165-14.530751 3.0165-.404359.0836-.698949.4685-.698949.8829v9.5645c0 .4044.307536.7507.698949.8461l14.089351 3.4212c.7534 3.1084 1.9174 6.0828 3.4579 8.792l-8.1666 12.4339c-.2278.3473-.18337.8106.1103 1.1038l6.7689 6.7687c.2851.2842.7224.3199 1.0667.1103l12.8018-7.7619c2.5109 1.4495 5.2294 2.6109 8.0931 3.3844l2.9798 14.3471c.0835.405.432.699.846.699h9.5646c.4014 0 .7508-.27.846-.663l3.5316-14.42c2.9535-.7964 5.7382-1.9786 8.3139-3.4947 0 0 12.6178 8.277 12.6178 8.277.3479.2266.8087.1828 1.1036-.1103 0 0 6.7321-6.7689 6.7321-6.7689.2859-.2853.3565-.7224.1471-1.0668 0 0-4.5984-7.578-4.5984-7.578s-1.5083.4783-1.5083.4783c-.2178.0671-.4591-.0314-.5886-.2209 0 0-2.9047-4.2728-6.6952-9.822-4.5332 8.8706-13.7783 14.9354-24.4264 14.9354-15.1308 0-27.4061-12.2753-27.4061-27.4061 0-11.1298 6.6555-20.6892 16.1862-24.9782v-7.0631c-1.7346.6071-3.4103 1.3396-5.003 2.2072-.003-.0018.0029-.0351 0-.0367l-12.9121-8.4611c-.1737-.1135-.3572-.1304-.5519-.1103zm39.0307-17.2898s-17.2162 1.65541-17.2162 1.65541v70.92489s17.0323-2.575 17.0323-2.575v-30.2388s22.9183 33.5495 22.9183 33.5495 17.9518-5.7019 17.9518-5.7019-23.47-32.2621-23.47-32.2621 23.654-30.42257 23.654-30.42257-18.3198-4.193694-18.3198-4.193694-22.7343 30.422764-22.7343 30.422764.1839-31.1585.1839-31.1585z" transform="matrix(.91709397 0 0 .91709397 85.055875 892.74267)"/><rect width="140" height="256" x="60.183" y="796.444" fill="url(#c)" opacity=".5" rx="10" ry="10"/></g></svg>