<svg xmlns="http://www.w3.org/2000/svg" viewBox="0 0 16 16"><style id="current-color-scheme" type="text/css">.ColorScheme-PositiveText{color:#27ae60}.ColorScheme-Text{color:#232629}</style><rect width="16" height="16" fill="currentColor" class="ColorScheme-PositiveText" rx="2"/><path fill="currentColor" fill-opacity=".6" d="m2 0c-1.108 0-2 .892-2 2v12c0 1.108.892 2 2 2h12c1.108 0 2-.892 2-2v-12c0-1.108-.892-2-2-2zm0 1h12c.554 0 1 .446 1 1v12c0 .554-.446 1-1 1h-12c-.554 0-1-.446-1-1v-12c0-.554.446-1 1-1z" class="ColorScheme-Text"/><path fill="#fff" d="m2 3v8h5v1h-2v1h6v-1h-2v-1h5v-8zm1 1h10v6h-10z"/></svg>