<svg xmlns="http://www.w3.org/2000/svg" viewBox="0 0 32 32"><style id="current-color-scheme" type="text/css">.ColorScheme-PositiveText{color:#27ae60}.ColorScheme-Text{color:#232629}</style><rect width="32" height="32" fill="currentColor" class="ColorScheme-PositiveText" rx="4"/><path fill="#fff" d="m4 8v16h24v-16zm2 1h20v14h-20z"/><path fill="currentColor" fill-rule="evenodd" d="m4 0c-2.216 0-4 1.784-4 4v24c0 2.216 1.784 4 4 4h24c2.216 0 4-1.784 4-4v-24c0-2.216-1.784-4-4-4zm0 1h24c1.662 0 3 1.338 3 3v24c0 1.662-1.338 3-3 3h-24c-1.662 0-3-1.338-3-3v-24c0-1.662 1.338-3 3-3z" class="ColorScheme-Text" opacity=".6"/></svg>