<svg xmlns="http://www.w3.org/2000/svg" viewBox="0 0 32 32"><style id="current-color-scheme" type="text/css">.ColorScheme-Text{color:#232629}</style><g fill="currentColor" class="ColorScheme-Text"><path d="m4 6v18h-2v1c0 .552285.4477153 1 1 1h26c.552285 0 1-.447715 1-1v-1h-2v-18zm1 1h22v16h-22z"/><path fill-rule="evenodd" d="m4 0c-2.216 0-4 1.784-4 4v24c0 2.216 1.784 4 4 4h24c2.216 0 4-1.784 4-4v-24c0-2.216-1.784-4-4-4zm0 1h24c1.662 0 3 1.338 3 3v24c0 1.662-1.338 3-3 3h-24c-1.662 0-3-1.338-3-3v-24c0-1.662 1.338-3 3-3z"/></g></svg>